<?xml version="1.0" encoding="utf-8"?>
<!-- Generator: Adobe Illustrator 19.2.1, SVG Export Plug-In . SVG Version: 6.00 Build 0)  -->
<svg version="1.1" id="Layer_1" xmlns="http://www.w3.org/2000/svg" xmlns:xlink="http://www.w3.org/1999/xlink" x="0px" y="0px"
	 width="90px" height="90px" viewBox="0 0 90 90" style="enable-background:new 0 0 90 90;" xml:space="preserve">
<style type="text/css">
	.st0{fill:#FFFFFF;}
</style>
<rect x="45" y="34" class="st0" width="1" height="12"/>
<path class="st0" d="M39.5,31c1.4,0,2.5,1.1,2.5,2.5S40.9,36,39.5,36S37,34.9,37,33.5S38.1,31,39.5,31 M39.5,30
	c-1.9,0-3.5,1.6-3.5,3.5s1.6,3.5,3.5,3.5s3.5-1.6,3.5-3.5S41.4,30,39.5,30L39.5,30z"/>
<path class="st0" d="M45.5,47c0.8,0,1.5,0.7,1.5,1.5S46.3,50,45.5,50S44,49.3,44,48.5S44.7,47,45.5,47 M45.5,46
	c-1.4,0-2.5,1.1-2.5,2.5s1.1,2.5,2.5,2.5s2.5-1.1,2.5-2.5S46.9,46,45.5,46L45.5,46z"/>
<polygon class="st0" points="52,46 51,46 51,42 45,42 45,41 52,41 "/>
<path class="st0" d="M51.5,47c0.8,0,1.5,0.7,1.5,1.5S52.3,50,51.5,50S50,49.3,50,48.5S50.7,47,51.5,47 M51.5,46
	c-1.4,0-2.5,1.1-2.5,2.5s1.1,2.5,2.5,2.5s2.5-1.1,2.5-2.5S52.9,46,51.5,46L51.5,46z"/>
<polygon class="st0" points="58,46 57,46 57,42 51,42 51,41 58,41 "/>
<path class="st0" d="M57.5,47c0.8,0,1.5,0.7,1.5,1.5S58.3,50,57.5,50S56,49.3,56,48.5S56.7,47,57.5,47 M57.5,46
	c-1.4,0-2.5,1.1-2.5,2.5s1.1,2.5,2.5,2.5s2.5-1.1,2.5-2.5S58.9,46,57.5,46L57.5,46z"/>
<polygon class="st0" points="64,46 63,46 63,42 57,42 57,41 64,41 "/>
<path class="st0" d="M63.5,47c0.8,0,1.5,0.7,1.5,1.5S64.3,50,63.5,50c-0.8,0-1.5-0.7-1.5-1.5S62.7,47,63.5,47 M63.5,46
	c-1.4,0-2.5,1.1-2.5,2.5s1.1,2.5,2.5,2.5c1.4,0,2.5-1.1,2.5-2.5S64.9,46,63.5,46L63.5,46z"/>
<path class="st0" d="M51.5,31c1.4,0,2.5,1.1,2.5,2.5S52.9,36,51.5,36S49,34.9,49,33.5S50.1,31,51.5,31 M51.5,30
	c-1.9,0-3.5,1.6-3.5,3.5s1.6,3.5,3.5,3.5s3.5-1.6,3.5-3.5S53.4,30,51.5,30L51.5,30z"/>
<rect x="42" y="33" class="st0" width="7" height="1"/>
<polygon class="st0" points="40,46 39,46 39,41 46,41 46,42 40,42 "/>
<path class="st0" d="M39.5,47c0.8,0,1.5,0.7,1.5,1.5S40.3,50,39.5,50S38,49.3,38,48.5S38.7,47,39.5,47 M39.5,46
	c-1.4,0-2.5,1.1-2.5,2.5s1.1,2.5,2.5,2.5s2.5-1.1,2.5-2.5S40.9,46,39.5,46L39.5,46z"/>
<polygon class="st0" points="34,46 33,46 33,41 40,41 40,42 34,42 "/>
<path class="st0" d="M33.5,47c0.8,0,1.5,0.7,1.5,1.5S34.3,50,33.5,50S32,49.3,32,48.5S32.7,47,33.5,47 M33.5,46
	c-1.4,0-2.5,1.1-2.5,2.5s1.1,2.5,2.5,2.5s2.5-1.1,2.5-2.5S34.9,46,33.5,46L33.5,46z"/>
<polygon class="st0" points="28,46 27,46 27,41 34,41 34,42 28,42 "/>
<path class="st0" d="M27.5,47c0.8,0,1.5,0.7,1.5,1.5S28.3,50,27.5,50S26,49.3,26,48.5S26.7,47,27.5,47 M27.5,46
	c-1.4,0-2.5,1.1-2.5,2.5s1.1,2.5,2.5,2.5s2.5-1.1,2.5-2.5S28.9,46,27.5,46L27.5,46z"/>
<path class="st0" d="M27.5,59c0.3,0,0.5,0.2,0.5,0.5S27.8,60,27.5,60S27,59.8,27,59.5S27.2,59,27.5,59 M27.5,58
	c-0.8,0-1.5,0.7-1.5,1.5s0.7,1.5,1.5,1.5s1.5-0.7,1.5-1.5S28.3,58,27.5,58L27.5,58z"/>
<path class="st0" d="M29.5,56c0.3,0,0.5,0.2,0.5,0.5S29.8,57,29.5,57S29,56.8,29,56.5S29.2,56,29.5,56 M29.5,55
	c-0.8,0-1.5,0.7-1.5,1.5s0.7,1.5,1.5,1.5s1.5-0.7,1.5-1.5S30.3,55,29.5,55L29.5,55z"/>
<path class="st0" d="M31.5,59c0.3,0,0.5,0.2,0.5,0.5S31.8,60,31.5,60S31,59.8,31,59.5S31.2,59,31.5,59 M31.5,58
	c-0.8,0-1.5,0.7-1.5,1.5s0.7,1.5,1.5,1.5s1.5-0.7,1.5-1.5S32.3,58,31.5,58L31.5,58z"/>
<path class="st0" d="M33.5,56c0.3,0,0.5,0.2,0.5,0.5S33.8,57,33.5,57S33,56.8,33,56.5S33.2,56,33.5,56 M33.5,55
	c-0.8,0-1.5,0.7-1.5,1.5s0.7,1.5,1.5,1.5s1.5-0.7,1.5-1.5S34.3,55,33.5,55L33.5,55z"/>
<path class="st0" d="M35.5,59c0.3,0,0.5,0.2,0.5,0.5S35.8,60,35.5,60S35,59.8,35,59.5S35.2,59,35.5,59 M35.5,58
	c-0.8,0-1.5,0.7-1.5,1.5s0.7,1.5,1.5,1.5s1.5-0.7,1.5-1.5S36.3,58,35.5,58L35.5,58z"/>
<path class="st0" d="M37.5,56c0.3,0,0.5,0.2,0.5,0.5S37.8,57,37.5,57S37,56.8,37,56.5S37.2,56,37.5,56 M37.5,55
	c-0.8,0-1.5,0.7-1.5,1.5s0.7,1.5,1.5,1.5s1.5-0.7,1.5-1.5S38.3,55,37.5,55L37.5,55z"/>
<path class="st0" d="M39.5,59c0.3,0,0.5,0.2,0.5,0.5S39.8,60,39.5,60S39,59.8,39,59.5S39.2,59,39.5,59 M39.5,58
	c-0.8,0-1.5,0.7-1.5,1.5s0.7,1.5,1.5,1.5s1.5-0.7,1.5-1.5S40.3,58,39.5,58L39.5,58z"/>
<path class="st0" d="M41.5,56c0.3,0,0.5,0.2,0.5,0.5S41.8,57,41.5,57S41,56.8,41,56.5S41.2,56,41.5,56 M41.5,55
	c-0.8,0-1.5,0.7-1.5,1.5s0.7,1.5,1.5,1.5s1.5-0.7,1.5-1.5S42.3,55,41.5,55L41.5,55z"/>
<path class="st0" d="M43.5,59c0.3,0,0.5,0.2,0.5,0.5S43.8,60,43.5,60S43,59.8,43,59.5S43.2,59,43.5,59 M43.5,58
	c-0.8,0-1.5,0.7-1.5,1.5s0.7,1.5,1.5,1.5s1.5-0.7,1.5-1.5S44.3,58,43.5,58L43.5,58z"/>
<path class="st0" d="M45.5,56c0.3,0,0.5,0.2,0.5,0.5S45.8,57,45.5,57S45,56.8,45,56.5S45.2,56,45.5,56 M45.5,55
	c-0.8,0-1.5,0.7-1.5,1.5s0.7,1.5,1.5,1.5s1.5-0.7,1.5-1.5S46.3,55,45.5,55L45.5,55z"/>
<path class="st0" d="M47.5,59c0.3,0,0.5,0.2,0.5,0.5S47.8,60,47.5,60S47,59.8,47,59.5S47.2,59,47.5,59 M47.5,58
	c-0.8,0-1.5,0.7-1.5,1.5s0.7,1.5,1.5,1.5s1.5-0.7,1.5-1.5S48.3,58,47.5,58L47.5,58z"/>
<path class="st0" d="M49.5,56c0.3,0,0.5,0.2,0.5,0.5S49.8,57,49.5,57S49,56.8,49,56.5S49.2,56,49.5,56 M49.5,55
	c-0.8,0-1.5,0.7-1.5,1.5s0.7,1.5,1.5,1.5s1.5-0.7,1.5-1.5S50.3,55,49.5,55L49.5,55z"/>
<path class="st0" d="M51.5,59c0.3,0,0.5,0.2,0.5,0.5S51.8,60,51.5,60S51,59.8,51,59.5S51.2,59,51.5,59 M51.5,58
	c-0.8,0-1.5,0.7-1.5,1.5s0.7,1.5,1.5,1.5s1.5-0.7,1.5-1.5S52.3,58,51.5,58L51.5,58z"/>
<path class="st0" d="M53.5,56c0.3,0,0.5,0.2,0.5,0.5S53.8,57,53.5,57S53,56.8,53,56.5S53.2,56,53.5,56 M53.5,55
	c-0.8,0-1.5,0.7-1.5,1.5s0.7,1.5,1.5,1.5s1.5-0.7,1.5-1.5S54.3,55,53.5,55L53.5,55z"/>
<path class="st0" d="M55.5,59c0.3,0,0.5,0.2,0.5,0.5S55.8,60,55.5,60S55,59.8,55,59.5S55.2,59,55.5,59 M55.5,58
	c-0.8,0-1.5,0.7-1.5,1.5s0.7,1.5,1.5,1.5s1.5-0.7,1.5-1.5S56.3,58,55.5,58L55.5,58z"/>
<path class="st0" d="M57.5,56c0.3,0,0.5,0.2,0.5,0.5S57.8,57,57.5,57S57,56.8,57,56.5S57.2,56,57.5,56 M57.5,55
	c-0.8,0-1.5,0.7-1.5,1.5s0.7,1.5,1.5,1.5s1.5-0.7,1.5-1.5S58.3,55,57.5,55L57.5,55z"/>
<path class="st0" d="M59.5,59c0.3,0,0.5,0.2,0.5,0.5S59.8,60,59.5,60S59,59.8,59,59.5S59.2,59,59.5,59 M59.5,58
	c-0.8,0-1.5,0.7-1.5,1.5s0.7,1.5,1.5,1.5s1.5-0.7,1.5-1.5S60.3,58,59.5,58L59.5,58z"/>
<path class="st0" d="M61.5,56c0.3,0,0.5,0.2,0.5,0.5S61.8,57,61.5,57S61,56.8,61,56.5S61.2,56,61.5,56 M61.5,55
	c-0.8,0-1.5,0.7-1.5,1.5s0.7,1.5,1.5,1.5s1.5-0.7,1.5-1.5S62.3,55,61.5,55L61.5,55z"/>
<path class="st0" d="M63.5,59c0.3,0,0.5,0.2,0.5,0.5S63.8,60,63.5,60S63,59.8,63,59.5S63.2,59,63.5,59 M63.5,58
	c-0.8,0-1.5,0.7-1.5,1.5s0.7,1.5,1.5,1.5s1.5-0.7,1.5-1.5S64.3,58,63.5,58L63.5,58z"/>
</svg>
